<svg id="Layer_1" data-name="Layer 1" xmlns="http://www.w3.org/2000/svg" width="16mm" height="9mm" viewBox="0 0 45.35 25.51">
  <defs>
    <style>
      .cls-1 {
        fill: #d03833;
      }

      .cls-2 {
        fill: #e1d8ab;
      }

      .cls-3 {
        fill: #160f00;
      }

      .cls-4 {
        fill: #2a1000;
      }

      .cls-5 {
        fill: #d33592;
        opacity: 0.3;
      }

      .cls-6 {
        fill: #3a884b;
      }

      .cls-12, .cls-13, .cls-7 {
        fill: none;
        stroke: #cf2e2e;
        stroke-miterlimit: 10;
      }

      .cls-7 {
        stroke-width: 0.03px;
      }

      .cls-8 {
        fill: #cf2e2e;
      }

      .cls-9 {
        fill: #090708;
      }

      .cls-10 {
        fill: #fff;
      }

      .cls-11 {
        fill: #a0d7e1;
      }

      .cls-12 {
        stroke-width: 0.03px;
      }

      .cls-13 {
        stroke-width: 0.02px;
      }
    </style>
  </defs>
  <g>
    <path class="cls-1" d="M10.58,2.9a3.85,3.85,0,0,1,3,1.3,5.68,5.68,0,0,1,1.08,3.36,21.34,21.34,0,0,0,.26,3.58c.12.52.3,1,.41,1.55a11.87,11.87,0,0,1,.06,3.42c-.11,1.37-.22,2.75-.43,4.11a1.38,1.38,0,0,1-.17.53,1.15,1.15,0,0,1-.53.39c-2.08,1-4.49.81-6.76.5a1.91,1.91,0,0,1-1.28-.53,2,2,0,0,1-.32-.89,20.17,20.17,0,0,1-.34-7.65,25.6,25.6,0,0,0,.7-3C6.39,8.2,6,6.73,6.61,5.48a5.13,5.13,0,0,1,.56-.89A4.53,4.53,0,0,1,7.67,4a4.69,4.69,0,0,1,1.76-.94A4.45,4.45,0,0,1,10.58,2.9Z"/>
    <circle class="cls-2" cx="10.4" cy="6.8" r="3.03"/>
    <ellipse class="cls-2" cx="10.4" cy="15.91" rx="4.21" ry="5.26"/>
    <path class="cls-3" d="M8.61,4.19a4.42,4.42,0,0,1,3-.25,2.7,2.7,0,0,1,1.53,1.42,2.66,2.66,0,0,1,0,2.09,2.24,2.24,0,0,1-.34-1.26,1.51,1.51,0,0,1-.72-1.5,2.2,2.2,0,0,1-1.23.89,2.6,2.6,0,0,1-1.09.23,1.33,1.33,0,0,1-1-.44,1,1,0,0,1-1.11.81c.24.05.26.38.23.63s-.08.74-.16,1.1a3,3,0,0,1-.32-1.52A3.05,3.05,0,0,1,8,4.85a2,2,0,0,1,.29-.36A1.38,1.38,0,0,1,8.61,4.19Z"/>
    <path class="cls-4" d="M10.68,6.65a2.62,2.62,0,0,1,1.21-.1"/>
    <path class="cls-4" d="M9.9,6.49a2,2,0,0,1-.6,0,.64.64,0,0,0-.55.19"/>
    <circle class="cls-5" cx="9" cy="8.73" r="0.4"/>
    <circle class="cls-5" cx="11.78" cy="8.48" r="0.4"/>
    <path class="cls-6" d="M11,12.11a1.14,1.14,0,0,0,.52.54.85.85,0,0,0-.27-.85.89.89,0,0,0,.58.13c.11,0,.25,0,.29-.12a.18.18,0,0,0-.08-.22.51.51,0,0,0-.24-.07,3.53,3.53,0,0,0-.65,0,2,2,0,0,0-.34.06c-.11,0,0,.11,0,.19Z"/>
    <path class="cls-6" d="M9.63,12.26a1.39,1.39,0,0,1-.21.27,1,1,0,0,1-.47.16,1.71,1.71,0,0,1,.59-.85l-.63,0a.45.45,0,0,1-.41-.11.14.14,0,0,1,0-.06s0-.06.08-.08a2.07,2.07,0,0,1,1-.16,1.45,1.45,0,0,1,.5.11c.1.07-.05.15-.1.19a.89.89,0,0,0-.16.22Z"/>
    <path class="cls-7" d="M9.84,8.86a1.14,1.14,0,0,0,.39.16.9.9,0,0,0,.46,0L10.84,9a1.13,1.13,0,0,0,.21-.15"/>
    <path class="cls-8" d="M10.25,9s0-.07,0-.1a.09.09,0,0,1,0-.07.1.1,0,0,1,.11,0,.11.11,0,0,1,.1.07.1.1,0,0,1,.11-.06.12.12,0,0,1,.08.09.22.22,0,0,1,0,.14.76.76,0,0,1-.08.11.46.46,0,0,0-.07.07l0,0h0l-.12-.14A.41.41,0,0,0,10.25,9Z"/>
    <circle class="cls-4" cx="10.29" cy="8.19" r="0.03"/>
    <circle class="cls-4" cx="10.56" cy="8.19" r="0.03"/>
    <g>
      <polygon class="cls-9" points="8.55 7.05 8.6 7.02 8.65 7.01 8.73 7.02 8.8 7.05 8.83 7.08 8.78 7.15 8.73 7.11 8.71 7.08 8.65 7.07 8.57 7.07 8.55 7.07 8.55 7.05"/>
      <polygon class="cls-9" points="8.77 7.2 8.7 7.19 8.58 7.19 8.51 7.22 8.61 7.23 8.7 7.24 8.74 7.26 8.77 7.2"/>
      <polygon class="cls-9" points="9.01 7.01 8.94 6.95 8.88 6.92 8.81 6.9 8.74 6.89 8.81 6.94 8.87 6.99 8.88 7.04 9.01 7.01"/>
    </g>
    <g>
      <polygon class="cls-9" points="11.92 7.17 11.99 7.16 12.04 7.17 12.1 7.2 12.14 7.23 12.09 7.24 12.04 7.22 11.98 7.22 11.93 7.23 11.92 7.17"/>
      <polygon class="cls-9" points="11.82 7.03 11.87 6.96 11.92 6.91 11.96 6.91 11.88 6.89 11.78 6.9 11.72 6.97 11.82 7.03"/>
      <polygon class="cls-9" points="11.84 7.04 11.88 7.02 11.96 7.01 12.02 7.01 12.07 7.03 12.1 7.04 12.1 7.06 12.05 7.07 11.98 7.08 11.91 7.09 11.89 7.11 11.84 7.04"/>
    </g>
    <ellipse class="cls-10" cx="11.4" cy="7.16" rx="0.57" ry="0.22"/>
    <ellipse class="cls-11" cx="11.39" cy="7.16" rx="0.17" ry="0.22"/>
    <ellipse class="cls-10" cx="9.27" cy="7.19" rx="0.57" ry="0.22"/>
    <ellipse class="cls-11" cx="9.25" cy="7.2" rx="0.17" ry="0.22"/>
  </g>
  <g>
    <path class="cls-1" d="M22.66,6.44a3.15,3.15,0,0,1,2.47,1.07A4.6,4.6,0,0,1,26,10.28a19.2,19.2,0,0,0,.21,2.94c.1.43.25.85.35,1.28a9.86,9.86,0,0,1,0,2.82c-.09,1.13-.18,2.27-.36,3.39a1.08,1.08,0,0,1-.13.43,1,1,0,0,1-.44.33,10,10,0,0,1-5.57.4,1.56,1.56,0,0,1-1.05-.43,1.5,1.5,0,0,1-.26-.73,16.35,16.35,0,0,1-.28-6.3,21.5,21.5,0,0,0,.57-2.47c.11-1.14-.18-2.34.29-3.38a3.43,3.43,0,0,1,.47-.72,3.09,3.09,0,0,1,.4-.48,3.91,3.91,0,0,1,1.45-.77A3.84,3.84,0,0,1,22.66,6.44Z"/>
    <circle class="cls-2" cx="22.51" cy="9.65" r="2.5"/>
    <ellipse class="cls-2" cx="22.51" cy="17.16" rx="3.47" ry="4.33"/>
    <path class="cls-3" d="M21,7.51a3.56,3.56,0,0,1,2.48-.21,2.18,2.18,0,0,1,1.25,1.17,2.23,2.23,0,0,1,0,1.72,1.82,1.82,0,0,1-.29-1,1.24,1.24,0,0,1-.59-1.23,1.81,1.81,0,0,1-1,.73,2.34,2.34,0,0,1-.9.19,1.09,1.09,0,0,1-.82-.37.79.79,0,0,1-.92.67c.2,0,.22.32.19.52s-.07.61-.13.91a2.35,2.35,0,0,1-.26-1.25,2.5,2.5,0,0,1,.45-1.27,1.76,1.76,0,0,1,.24-.3C20.83,7.68,20.94,7.54,21,7.51Z"/>
    <path class="cls-4" d="M22.74,9.53a2,2,0,0,1,1-.08"/>
    <path class="cls-4" d="M22.1,9.4a1.69,1.69,0,0,1-.5,0,.47.47,0,0,0-.44.16"/>
    <circle class="cls-5" cx="21.36" cy="11.24" r="0.33"/>
    <circle class="cls-5" cx="23.65" cy="11.04" r="0.33"/>
    <path class="cls-6" d="M23,14a.9.9,0,0,0,.43.45.73.73,0,0,0-.22-.7.72.72,0,0,0,.48.11c.09,0,.2,0,.24-.1a.16.16,0,0,0-.07-.18.47.47,0,0,0-.2-.06,2.44,2.44,0,0,0-.54,0,1.28,1.28,0,0,0-.27.05c-.1,0,0,.09,0,.16Z"/>
    <path class="cls-6" d="M21.88,14.15a1,1,0,0,1-.18.22.72.72,0,0,1-.38.13,1.5,1.5,0,0,1,.48-.7l-.51,0c-.13,0-.27,0-.34-.09s0,0,0-.05,0,0,.07-.07a1.69,1.69,0,0,1,.83-.13,1.16,1.16,0,0,1,.41.09c.09.06,0,.12-.08.16a.62.62,0,0,0-.14.18Z"/>
    <path class="cls-12" d="M22.05,11.35a.83.83,0,0,0,.32.13.81.81,0,0,0,.38,0l.12-.05a1.4,1.4,0,0,0,.18-.13"/>
    <path class="cls-8" d="M22.39,11.5a.29.29,0,0,1,0-.09.08.08,0,0,1,0-.05.14.14,0,0,1,.1,0,.1.1,0,0,1,.08.06.09.09,0,0,1,.09,0,.11.11,0,0,1,.07.08.14.14,0,0,1,0,.11s0,.06-.06.09l-.06.06,0,0h0a.4.4,0,0,1-.1-.12A.25.25,0,0,0,22.39,11.5Z"/>
    <circle class="cls-4" cx="22.42" cy="10.8" r="0.02"/>
    <circle class="cls-4" cx="22.64" cy="10.8" r="0.02"/>
    <g>
      <polygon class="cls-9" points="20.99 9.86 21.03 9.84 21.07 9.83 21.13 9.84 21.2 9.86 21.22 9.88 21.18 9.94 21.14 9.91 21.12 9.88 21.07 9.88 21.01 9.88 20.99 9.88 20.99 9.86"/>
      <polygon class="cls-9" points="21.17 9.98 21.11 9.97 21.02 9.97 20.96 9.99 21.04 10.01 21.11 10.02 21.14 10.03 21.17 9.98"/>
      <polygon class="cls-9" points="21.36 9.82 21.31 9.78 21.26 9.76 21.2 9.73 21.15 9.73 21.21 9.77 21.25 9.81 21.26 9.85 21.36 9.82"/>
    </g>
    <g>
      <polygon class="cls-9" points="23.76 9.96 23.82 9.95 23.86 9.96 23.91 9.98 23.95 10.01 23.91 10.02 23.86 10 23.82 10 23.77 10.01 23.76 9.96"/>
      <polygon class="cls-9" points="23.68 9.84 23.72 9.78 23.77 9.75 23.79 9.74 23.73 9.72 23.65 9.74 23.6 9.8 23.68 9.84"/>
      <polygon class="cls-9" points="23.7 9.85 23.73 9.83 23.8 9.82 23.85 9.82 23.89 9.84 23.91 9.85 23.91 9.87 23.87 9.88 23.82 9.88 23.76 9.89 23.74 9.91 23.7 9.85"/>
    </g>
    <ellipse class="cls-10" cx="23.33" cy="9.95" rx="0.47" ry="0.18"/>
    <ellipse class="cls-11" cx="23.33" cy="9.95" rx="0.14" ry="0.18"/>
    <ellipse class="cls-10" cx="21.58" cy="9.98" rx="0.47" ry="0.18"/>
    <ellipse class="cls-11" cx="21.57" cy="9.98" rx="0.14" ry="0.18"/>
  </g>
  <g>
    <path class="cls-1" d="M32.54,10.91a2.22,2.22,0,0,1,1.74.76,3.27,3.27,0,0,1,.63,1.95,13.06,13.06,0,0,0,.15,2.08c.07.31.18.6.24.91a7,7,0,0,1,0,2c-.07.8-.13,1.6-.26,2.39a.66.66,0,0,1-.09.31.87.87,0,0,1-.31.23,7.11,7.11,0,0,1-3.94.29,1.13,1.13,0,0,1-.74-.31,1.1,1.1,0,0,1-.19-.52,11.73,11.73,0,0,1-.2-4.45A14.82,14.82,0,0,0,30,14.79a7.5,7.5,0,0,1,.2-2.38,3.06,3.06,0,0,1,.33-.52,2.28,2.28,0,0,1,.29-.33,2.71,2.71,0,0,1,1-.55A2.47,2.47,0,0,1,32.54,10.91Z"/>
    <circle class="cls-2" cx="32.43" cy="13.18" r="1.77"/>
    <ellipse class="cls-2" cx="32.43" cy="18.48" rx="2.45" ry="3.06"/>
    <path class="cls-3" d="M31.39,11.66a2.59,2.59,0,0,1,1.75-.15,1.54,1.54,0,0,1,.9,2.05,1.47,1.47,0,0,1-.2-.74.87.87,0,0,1-.41-.87,1.37,1.37,0,0,1-.72.52,1.75,1.75,0,0,1-.64.14.74.74,0,0,1-.57-.27.56.56,0,0,1-.65.47c.14,0,.15.23.13.38s-.05.43-.09.64a1.73,1.73,0,0,1-.19-.89A2,2,0,0,1,31,12a1.63,1.63,0,0,1,.17-.2A.68.68,0,0,1,31.39,11.66Z"/>
    <path class="cls-4" d="M32.59,13.09A1.55,1.55,0,0,1,33.3,13"/>
    <path class="cls-4" d="M32.14,13a1,1,0,0,1-.35,0,.34.34,0,0,0-.32.11"/>
    <circle class="cls-5" cx="31.61" cy="14.3" r="0.23"/>
    <circle class="cls-5" cx="33.23" cy="14.16" r="0.23"/>
    <path class="cls-6" d="M32.76,16.27a.67.67,0,0,0,.31.31.51.51,0,0,0-.16-.49.56.56,0,0,0,.34.08c.06,0,.14,0,.17-.07a.11.11,0,0,0-.05-.13.34.34,0,0,0-.14-.05,1.6,1.6,0,0,0-.38,0,.69.69,0,0,0-.2,0c-.06,0,0,.07,0,.11Z"/>
    <path class="cls-6" d="M32,16.36a.57.57,0,0,1-.12.15.46.46,0,0,1-.27.09,1,1,0,0,1,.34-.49l-.37,0c-.08,0-.19,0-.24-.07s0,0,0,0,0,0,.05,0A1.18,1.18,0,0,1,32,15.9a.94.94,0,0,1,.29.06c.06,0,0,.09-.06.11a.51.51,0,0,0-.09.13Z"/>
    <path class="cls-13" d="M32.11,14.38a.63.63,0,0,0,.22.09.61.61,0,0,0,.27,0l.08,0,.13-.09"/>
    <path class="cls-8" d="M32.35,14.48a.14.14,0,0,1,0-.06l0,0a.07.07,0,0,1,.06,0,.07.07,0,0,1,.06,0s0,0,.06,0a.06.06,0,0,1,0,.06.09.09,0,0,1,0,.07.43.43,0,0,1,0,.07.08.08,0,0,0,0,0l0,0h0s0,0-.06-.08A.09.09,0,0,1,32.35,14.48Z"/>
    <circle class="cls-4" cx="32.37" cy="13.99" r="0.02"/>
    <circle class="cls-4" cx="32.52" cy="13.99" r="0.02"/>
    <g>
      <polygon class="cls-9" points="31.36 13.32 31.38 13.31 31.41 13.3 31.46 13.31 31.5 13.32 31.52 13.34 31.48 13.38 31.46 13.36 31.45 13.34 31.41 13.34 31.37 13.34 31.36 13.34 31.36 13.32"/>
      <polygon class="cls-9" points="31.48 13.41 31.44 13.41 31.37 13.41 31.33 13.42 31.39 13.43 31.44 13.44 31.46 13.45 31.48 13.41"/>
      <polygon class="cls-9" points="31.62 13.3 31.58 13.27 31.54 13.25 31.5 13.24 31.47 13.23 31.51 13.26 31.54 13.29 31.55 13.32 31.62 13.3"/>
    </g>
    <g>
      <polygon class="cls-9" points="33.31 13.39 33.35 13.39 33.38 13.39 33.42 13.41 33.45 13.43 33.41 13.44 33.38 13.43 33.35 13.42 33.32 13.43 33.31 13.39"/>
      <polygon class="cls-9" points="33.26 13.31 33.29 13.27 33.32 13.24 33.34 13.24 33.29 13.23 33.23 13.24 33.2 13.28 33.26 13.31"/>
      <polygon class="cls-9" points="33.27 13.32 33.29 13.3 33.34 13.3 33.37 13.3 33.41 13.31 33.42 13.32 33.42 13.33 33.39 13.34 33.35 13.34 33.31 13.35 33.3 13.36 33.27 13.32"/>
    </g>
    <ellipse class="cls-10" cx="33.01" cy="13.39" rx="0.33" ry="0.13"/>
    <ellipse class="cls-11" cx="33.01" cy="13.39" rx="0.1" ry="0.13"/>
    <ellipse class="cls-10" cx="31.77" cy="13.41" rx="0.33" ry="0.13"/>
    <ellipse class="cls-11" cx="31.76" cy="13.41" rx="0.1" ry="0.13"/>
  </g>
</svg>
